# xmcd
#
# Track frame offsets: 
#        150
#        19117
#        37650
#        49565
#        77107
#        88632
#        104877
#        122822
#        140877
#        155685
#        170837
#        190570
#        210590
#        228890
#        245005
#
# Disc length: 3557 seconds
#
# Revision: 27
# Processed by: cddbd v1.5.2PL0 Copyright (c) Steve Scherf et al.
# Submitted via: ExactAudioCopy v0.99pb4
#
DISCID=ca0de30f
DTITLE=Various Artist - Poet: A Tribute to Townes Van Zandt
DYEAR=2001
DGENRE=Country
TTITLE0=Guy Clark - To Live's to Fly
TTITLE1=Nanci Griffith - Tower Song
TTITLE2=Billy Joe Shaver - White Freightliner Blues
TTITLE3=Cowboy Junkies - Highway Kind
TTITLE4=Emmylou Harris - Snake Song
TTITLE5=Ray Benson - If I Needed You
TTITLE6=John Prine - Loretta
TTITLE7=Lucinda Williams - Nothin'
TTITLE8=The Flatlanders - Blue Wind Blew
TTITLE9=Robert Earl Keen - Mr. Mudd and Mr. Gold
TTITLE10=Steve Earle and The Dukes - Two Girls
TTITLE11=Willie Nelson - Marie
TTITLE12=Delbert McClinton - Pancho and Lefty
TTITLE13=Pat Haney - Waitin' 'Round to Die
TTITLE14=John T. Van Zandt - My Proud Mountains
EXTD=
EXTT0=
EXTT1=
EXTT2=
EXTT3=
EXTT4=
EXTT5=
EXTT6=
EXTT7=
EXTT8=
EXTT9=
EXTT10=
EXTT11=
EXTT12=
EXTT13=
EXTT14=
PLAYORDER=
